<?xml version="1.0" standalone="no"?>
<!DOCTYPE svg PUBLIC "-//W3C//DTD SVG 20010904//EN"
 "http://www.w3.org/TR/2001/REC-SVG-20010904/DTD/svg10.dtd">
<svg version="1.0" xmlns="http://www.w3.org/2000/svg"
 width="809.000000pt" height="798.000000pt" viewBox="0 0 809.000000 798.000000"
 preserveAspectRatio="xMidYMid meet">

<g transform="translate(0.000000,798.000000) scale(0.100000,-0.100000)"
fill="#000000" stroke="none">
<path d="M1505 7770 c-464 -39 -876 -286 -1127 -676 -85 -133 -161 -331 -194
-509 -18 -96 -19 -199 -19 -2525 l0 -2425 26 -120 c130 -594 540 -1007 1129
-1137 l105 -23 2570 0 2570 0 110 22 c586 119 1004 533 1137 1124 l23 104 0
2455 c0 2733 6 2507 -66 2723 -169 508 -584 863 -1133 969 l-111 22 -2465 2
c-1356 1 -2506 -2 -2555 -6z m5033 -350 c109 -14 239 -52 339 -100 261 -124
467 -353 562 -622 65 -185 60 -10 61 -2635 1 -2641 5 -2464 -64 -2657 -117
-327 -405 -589 -751 -684 l-100 -27 -2525 -3 c-1891 -2 -2548 0 -2615 9 -437
57 -793 371 -912 804 l-28 100 -3 2405 c-2 1753 0 2427 8 2485 58 402 361 753
760 880 177 55 57 53 2720 54 1638 1 2493 -2 2548 -9z"/>
<path d="M2788 7121 c-31 -10 -72 -28 -91 -40 -56 -34 -127 -117 -157 -184
l-28 -62 -158 -3 c-170 -4 -203 -13 -251 -64 -25 -27 -53 -88 -53 -117 0 -19
-10 -20 -382 -23 -373 -3 -385 -4 -441 -27 -115 -46 -202 -138 -237 -250 -20
-62 -20 -97 -20 -2291 0 -2204 0 -2229 20 -2293 36 -116 116 -204 235 -259
l50 -23 1785 -3 c1983 -3 1832 -8 1947 67 75 48 136 131 164 221 18 59 19 90
17 353 l-3 288 -88 29 c-48 16 -110 41 -137 55 l-50 25 0 -327 c0 -309 -1
-329 -21 -369 -15 -31 -32 -48 -63 -63 -42 -21 -46 -21 -1747 -21 -1640 0
-1706 1 -1745 19 -24 11 -50 33 -62 53 l-22 35 0 2204 c0 2079 1 2206 18 2238
9 19 30 44 45 55 27 20 43 21 383 24 l354 3 0 -53 c0 -74 16 -122 53 -165 68
-77 9 -73 968 -73 629 0 865 3 890 12 88 30 139 109 139 215 l0 63 349 0 c344
0 348 0 381 -22 18 -13 43 -36 54 -51 21 -28 21 -35 21 -633 0 -332 1 -604 1
-604 1 0 26 11 56 24 30 14 94 37 142 52 l87 27 -3 586 -3 586 -32 66 c-56
114 -164 195 -293 219 -29 6 -211 10 -406 10 l-354 0 0 25 c0 31 -24 81 -54
113 -45 51 -80 60 -248 63 l-157 4 -17 45 c-38 101 -108 174 -214 224 l-65 31
-250 2 c-220 2 -257 0 -307 -16z m359 -271 c56 -25 83 -70 83 -137 0 -46 -4
-58 -35 -92 -62 -69 -157 -74 -223 -13 -76 71 -54 199 40 245 43 22 84 21 135
-3z"/>
<path d="M2919 5762 c-138 -36 -243 -127 -310 -267 -102 -214 -64 -470 93
-624 96 -94 217 -141 363 -141 297 0 499 179 530 471 24 225 -99 446 -295 532
-113 50 -258 61 -381 29z m262 -223 c59 -30 93 -64 124 -126 27 -53 30 -67 30
-158 0 -89 -3 -106 -28 -157 -67 -137 -226 -195 -354 -129 -171 88 -199 386
-50 530 72 68 189 85 278 40z"/>
<path d="M2178 5749 c-17 -9 -18 -37 -18 -349 0 -381 -3 -402 -64 -435 -50
-27 -122 -16 -158 24 -15 17 -28 39 -28 49 0 10 -7 28 -16 40 -14 20 -23 22
-113 22 -62 0 -101 -4 -109 -12 -7 -7 -12 -31 -12 -53 0 -106 74 -211 188
-267 63 -31 72 -33 177 -33 146 0 215 24 296 104 92 92 92 95 97 519 3 334 2
365 -14 383 -15 16 -31 19 -113 19 -53 0 -104 -5 -113 -11z"/>
<path d="M3733 5749 c-10 -10 -13 -123 -13 -495 l0 -483 22 -15 c18 -13 54
-16 183 -16 289 0 407 25 487 103 57 56 81 108 86 188 5 87 -22 153 -89 213
l-48 43 35 34 c54 51 74 98 74 170 0 112 -61 194 -176 240 -55 21 -76 23 -304
27 -189 3 -248 1 -257 -9z m478 -237 c35 -39 37 -72 5 -109 -23 -27 -28 -28
-140 -33 l-116 -5 0 93 0 94 111 -4 111 -3 29 -33z m-11 -360 c48 -23 66 -63
51 -112 -20 -66 -38 -74 -172 -80 l-119 -5 0 108 0 107 103 0 c77 0 111 -4
137 -18z"/>
<path d="M5418 5029 c-489 -60 -893 -386 -1046 -844 -149 -447 -31 -946 302
-1279 143 -142 296 -236 489 -301 162 -54 265 -68 452 -62 177 6 297 30 434
86 41 17 76 29 77 28 1 -1 152 -214 337 -473 246 -346 345 -478 372 -494 67
-41 160 -36 226 12 67 50 93 164 54 238 -10 19 -160 235 -335 480 -174 245
-320 451 -324 458 -5 8 12 34 44 70 295 329 396 794 264 1214 -136 431 -517
768 -963 852 -103 20 -287 27 -383 15z m387 -346 c280 -79 495 -260 615 -516
104 -221 113 -491 24 -713 -107 -269 -333 -473 -620 -560 -81 -25 -104 -27
-249 -28 -192 0 -264 16 -422 94 -195 96 -334 234 -432 427 -100 200 -119 478
-47 691 108 315 363 543 691 616 99 22 344 16 440 -11z"/>
<path d="M2315 4364 c-16 -9 -104 -94 -194 -190 -91 -96 -167 -174 -170 -174
-3 0 -48 39 -100 85 -51 47 -104 88 -116 91 -27 7 -80 -19 -95 -45 -5 -11 -10
-35 -10 -53 0 -29 14 -47 132 -161 132 -127 166 -148 216 -139 24 5 437 425
460 468 18 35 7 78 -30 109 -34 29 -52 31 -93 9z"/>
<path d="M3000 4223 c-327 -3 -340 -5 -366 -55 -24 -47 -18 -86 20 -124 l34
-34 685 2 685 3 26 24 c56 53 40 148 -30 177 -30 13 -93 15 -393 12 -196 -2
-493 -4 -661 -5z"/>
<path d="M2333 3571 c-27 -7 -33 -13 -227 -209 l-159 -161 -79 72 c-43 40 -94
80 -112 90 -31 16 -38 17 -69 3 -39 -16 -57 -41 -57 -81 0 -41 12 -56 150
-184 188 -174 157 -180 428 96 117 120 219 231 228 246 35 65 -31 147 -103
128z"/>
<path d="M3173 3420 l-493 -5 -26 -26 c-16 -16 -28 -41 -31 -67 -5 -37 -2 -45
30 -77 l35 -35 682 0 682 0 34 34 c50 50 44 123 -15 163 -30 21 -87 22 -898
13z"/>
<path d="M2313 2767 c-12 -7 -99 -92 -193 -189 l-172 -178 -84 77 c-47 43 -96
84 -110 91 -56 30 -124 -18 -124 -87 0 -33 9 -45 107 -140 198 -190 219 -197
313 -103 203 202 388 401 394 425 13 54 -37 118 -92 117 -9 -1 -27 -6 -39 -13z"/>
<path d="M3070 2620 c-212 -3 -393 -9 -403 -14 -24 -12 -47 -58 -47 -97 0 -22
10 -41 34 -65 l34 -34 675 0 674 0 34 23 c69 46 60 151 -16 183 -37 15 -152
16 -985 4z"/>
</g>
</svg>
